<?xml version="1.0" standalone="no"?>
<!DOCTYPE svg PUBLIC "-//W3C//DTD SVG 20010904//EN"
 "http://www.w3.org/TR/2001/REC-SVG-20010904/DTD/svg10.dtd">
<svg version="1.0" xmlns="http://www.w3.org/2000/svg"
 width="89.000000pt" height="107.000000pt" viewBox="0 0 89.000000 107.000000"
 preserveAspectRatio="xMidYMid meet">
<metadata>
Created by potrace 1.16, written by Peter Selinger 2001-2019
</metadata>
<g transform="translate(0.000000,107.000000) scale(0.100000,-0.100000)"
fill="#000000" stroke="none">
<path d="M425 1053 c-18 -14 -55 -98 -55 -125 0 -17 8 -31 20 -38 31 -17 15
-29 -32 -24 -33 3 -50 12 -75 39 -38 42 -55 43 -95 10 -16 -14 -35 -25 -43
-25 -7 0 -18 -7 -25 -15 -10 -13 -10 -19 2 -33 17 -18 44 -91 40 -106 -2 -4 2
-14 8 -21 14 -17 6 -21 -51 -29 -26 -4 -53 -15 -62 -24 -19 -23 -34 -75 -40
-141 -3 -43 -1 -56 14 -69 11 -9 19 -22 19 -30 0 -7 13 -21 30 -30 36 -20 37
-30 7 -41 -38 -15 -48 -36 -56 -116 -6 -64 -4 -78 8 -86 14 -8 13 -12 -6 -28
-28 -23 -28 -29 -2 -61 13 -16 22 -21 25 -13 6 13 85 8 116 -8 13 -7 27 3 62
43 25 29 49 49 53 45 3 -4 7 -31 7 -60 l1 -52 45 -1 c34 0 50 5 68 23 27 27
40 29 48 8 4 -10 21 -15 54 -15 42 0 51 4 69 29 12 16 21 33 21 38 0 11 33 43
43 43 4 0 7 -10 8 -22 0 -13 14 -34 31 -48 27 -21 40 -24 96 -22 77 3 102 14
102 47 0 24 -23 55 -42 55 -6 0 -5 7 3 16 19 23 38 84 32 100 -6 16 -23 19
-23 4 0 -5 -7 -10 -15 -10 -8 0 -15 -8 -15 -18 0 -29 -44 -65 -69 -57 l-22 7
21 34 c12 18 19 38 15 44 -3 6 -4 19 0 29 5 16 12 19 40 14 42 -7 44 4 9 32
l-26 21 38 37 39 38 0 94 c-1 111 -4 115 -87 139 -32 9 -58 19 -58 23 0 3 10
27 21 52 12 25 26 56 32 68 12 28 1 72 -21 80 -9 4 -28 15 -41 25 -34 26 -47
23 -93 -22 -23 -22 -51 -40 -62 -40 -11 0 -27 -7 -37 -16 -11 -9 -19 -11 -23
-5 -4 5 2 15 13 20 33 18 38 111 6 111 -9 0 -15 15 -17 43 -3 39 -5 42 -33 45
-16 1 -34 -1 -40 -5z m-127 -245 c12 -14 22 -40 24 -63 l3 -40 43 3 c41 3 42
2 42 -27 0 -21 6 -32 20 -36 27 -9 60 3 60 21 0 8 8 14 18 14 30 0 50 31 54
80 2 34 7 46 22 48 24 5 36 -14 36 -59 0 -19 6 -41 12 -47 10 -10 3 -21 -33
-55 -25 -23 -52 -55 -61 -72 -20 -39 -38 -115 -38 -165 0 -41 -14 -52 -38 -28
-8 8 -15 8 -28 -3 -14 -11 -18 -11 -30 6 -8 10 -14 32 -14 49 0 36 -15 84 -49
155 -22 46 -33 57 -80 79 -44 20 -51 27 -39 36 24 18 40 56 34 82 -12 46 9 57
42 22z m215 -40 c6 -41 -9 -55 -38 -34 -16 11 -16 15 -1 51 19 43 31 38 39
-17z m-100 -23 c1 -5 -6 -11 -15 -13 -11 -2 -18 3 -18 13 0 17 30 18 33 0z
m-146 -195 c15 -16 32 -30 37 -30 15 0 66 -62 66 -81 0 -37 -21 -70 -50 -80
-16 -6 -30 -14 -31 -17 -6 -48 -3 -70 9 -84 12 -14 12 -23 2 -47 -11 -27 -16
-30 -81 -36 -75 -8 -84 -4 -120 47 -19 26 -19 29 -3 35 11 4 26 -5 50 -33 l33
-39 25 30 c29 35 35 99 11 125 -14 16 -12 21 20 53 28 28 36 43 33 64 -2 19
-8 27 -18 24 -75 -20 -110 -8 -110 39 0 51 9 60 55 60 35 0 49 -6 72 -30z
m418 20 c-4 -6 7 -23 24 -37 17 -15 31 -35 31 -45 0 -39 -88 -53 -105 -17 -16
35 -30 27 -32 -18 -3 -41 -1 -44 38 -63 l40 -21 -7 -74 c-7 -73 -6 -74 20 -86
46 -21 31 -38 -18 -19 -51 19 -71 50 -71 110 0 55 -7 65 -59 83 -5 2 -3 26 4
55 8 37 21 59 41 75 16 12 42 32 57 44 28 24 48 30 37 13z m-295 -330 c-14
-10 -27 -17 -29 -15 -8 8 22 35 38 35 12 0 10 -5 -9 -20z m190 -58 c0 -20 -63
-58 -79 -48 -21 13 -11 33 27 53 41 22 52 21 52 -5z m-218 -9 c21 -19 24 -43
5 -43 -19 0 -50 37 -42 49 9 15 15 14 37 -6z m258 -23 c0 -5 -2 -10 -4 -10 -3
0 -8 5 -11 10 -3 6 -1 10 4 10 6 0 11 -4 11 -10z"/>
<path d="M433 609 c-18 -7 -23 -16 -23 -47 0 -45 27 -142 39 -142 8 0 31 127
31 169 0 23 -18 31 -47 20z"/>
</g>
</svg>
